<svg xmlns="http://www.w3.org/2000/svg" width="51" height="51" viewBox="0 0 51 51">
  <g id="Group_135523" data-name="Group 135523" transform="translate(-200 -1521)">
    <circle id="Ellipse_513" data-name="Ellipse 513" cx="25.5" cy="25.5" r="25.5" transform="translate(200 1521)" fill="#e1eeff"/>
    <g id="Insurance_security_approved" transform="translate(205.441 1529.709)">
      <path id="Path_158831" data-name="Path 158831" d="M34.357,23.477a.868.868,0,0,0-1.224.088l-3.425,3.954-.715-.835a.868.868,0,1,0-1.319,1.13l1.371,1.6a.869.869,0,0,0,.657.3h0a.867.867,0,0,0,.656-.3L34.445,24.7A.868.868,0,0,0,34.357,23.477Z" transform="translate(-9.953 -10.987)" fill="#0055bf"/>
      <path id="Path_158832" data-name="Path 158832" d="M31.992,9.8A2.491,2.491,0,0,0,29.9,7.423c-3.408-.612-6.647-3.6-8.273-5.328a2.549,2.549,0,0,0-1.826-.8h-.007a2.529,2.529,0,0,0-1.865.8C16.3,3.821,13.062,6.811,9.654,7.423A2.5,2.5,0,0,0,7.565,9.808a37.644,37.644,0,0,0,.617,7.479h0C9.6,24.741,13.321,29.732,18.956,31.722a2.527,2.527,0,0,0,.837.142,2.363,2.363,0,0,0,.815-.144c5.633-2.041,9.361-7.032,10.781-14.433h0A36.039,36.039,0,0,0,31.992,9.8ZM13.509,16.486H9.41a36.728,36.728,0,0,1-.495-6.655,1.136,1.136,0,0,1,.977-1.078c3.79-.681,7.277-3.884,9.02-5.735a1.173,1.173,0,0,1,.207-.175v7.549a6.3,6.3,0,0,0-5.61,6.094Zm6.283,4.7a4.541,4.541,0,1,1,1.815-8.7l.629-.726a2.117,2.117,0,0,1,1.6-.731h0a2.118,2.118,0,0,1,1.6,3.5l-1.172,1.353a4.515,4.515,0,0,1-4.472,5.3Zm.676,9.144V22.9a6.3,6.3,0,0,0,5.5-5.063H29.9C28.876,22.438,26.4,28.016,20.468,30.331Z" fill="#0055bf"/>
    </g>
  </g>
</svg>
