<svg xmlns="http://www.w3.org/2000/svg" width="51" height="51" viewBox="0 0 51 51">
  <g id="Group_135522" data-name="Group 135522" transform="translate(-200 -1613)">
    <circle id="Ellipse_515" data-name="Ellipse 515" cx="25.5" cy="25.5" r="25.5" transform="translate(200 1613)" fill="#e1eeff"/>
    <g id="_2315596_artistic_bulb_creative_experimental_idea_icon" data-name="2315596_artistic_bulb_creative_experimental_idea_icon" transform="translate(77.79 1516.544)">
      <path id="Path_158833" data-name="Path 158833" d="M319.313,299.964l1.624,2.431a.479.479,0,0,0,.459-.119l.869-.907s.115-.134-.057-.449l-2.163-1.555S319.342,299.081,319.313,299.964Z" transform="translate(-165.667 -173.552)" fill="#0055bf"/>
      <path id="Path_158834" data-name="Path 158834" d="M347.67,226.23l2.786.576a.514.514,0,0,0,.251-.418l.023-1.282s-.007-.18-.34-.281l-2.591.446S347.1,225.574,347.67,226.23Z" transform="translate(-190.984 -106.515)" fill="#0055bf"/>
      <path id="Path_158835" data-name="Path 158835" d="M320.436,141.829l2.3-1.732a.532.532,0,0,0-.122-.477l-.883-.892s-.131-.118-.429.067l-1.455,2.281S319.591,141.813,320.436,141.829Z" transform="translate(-166.117 -29.007)" fill="#0055bf"/>
      <path id="Path_158836" data-name="Path 158836" d="M249.466,109.629l.458-2.925a.49.49,0,0,0-.409-.247l-1.229.019s-.172.013-.258.363l.514,2.687S248.856,110.241,249.466,109.629Z" transform="translate(-101.52)" fill="#0055bf"/>
      <path id="Path_158837" data-name="Path 158837" d="M169.07,140.74l-1.593-2.453a.477.477,0,0,0-.46.113l-.88.9s-.117.133.052.449l2.143,1.584S169.03,141.622,169.07,140.74Z" transform="translate(-27.794 -28.628)" fill="#0055bf"/>
      <path id="Path_158838" data-name="Path 158838" d="M138.251,224.643l-2.8-.464a.516.516,0,0,0-.235.428l.024,1.282s.014.179.35.267l2.573-.55S138.84,225.275,138.251,224.643Z" transform="translate(0 -105.934)" fill="#0055bf"/>
      <path id="Path_158839" data-name="Path 158839" d="M167.678,298.76l-2.348,1.667a.533.533,0,0,0,.11.48l.859.916s.128.121.431-.055l1.514-2.239S168.523,298.8,167.678,298.76Z" transform="translate(-27.089 -173.047)" fill="#0055bf"/>
      <path id="Path_158840" data-name="Path 158840" d="M208.873,342.275l.482-.274h7.678l.387.274s.945.144.645,1.266a.668.668,0,0,1-.53.479l.009.279a1.1,1.1,0,0,1,.58,1.175.81.81,0,0,1-.742.638,3.253,3.253,0,0,1-2.368,1.584s-.133,1.282-1.919,1.324a1.751,1.751,0,0,1-1.729-1.314,3.824,3.824,0,0,1-2.4-1.584.968.968,0,0,1-.687-1.037.864.864,0,0,1,.544-.768v-.278a.994.994,0,0,1-.506-1.186A.8.8,0,0,1,208.873,342.275Z" transform="translate(-65.751 -211.957)" fill="#0055bf"/>
      <path id="Path_158841" data-name="Path 158841" d="M198.517,183.352l-1.277-.025s-.255-3.226-1.668-4.821a8.481,8.481,0,0,1-1.56-3.124,6.92,6.92,0,0,1,3.833-7.578,6.3,6.3,0,0,1,7.622,2.331,6.606,6.606,0,0,1,.095,7.415,29.085,29.085,0,0,0-2.413,5.777H201.9a31.058,31.058,0,0,1,.8-5.937s1.261-3.837,1.356-4.36l-2.426.613-1.359-1.076-1.373,1.171-2.388-.792s1.356,4.584,1.413,4.783C197.922,177.729,198.407,181.239,198.517,183.352Z" transform="translate(-52.813 -54.785)" fill="none"/>
      <path id="Path_158842" data-name="Path 158842" d="M221.87,230.289a29.181,29.181,0,0,0-1.01-7.1l-.924-3.254,2.388.792,1.373-1.171,1.359,1.076,2.426-.613s-1.18,3.938-1.547,5.073a42.2,42.2,0,0,0-.554,5.218Z" transform="translate(-76.241 -101.772)" fill="#0055bf"/>
      <path id="Path_158843" data-name="Path 158843" d="M184.471,170.5h-.91s-.3.1-.451-.451a3.681,3.681,0,0,0-.935-2.754s-1.118-1.852-1.352-2.1c0,0-3.772-6.225,2.8-11.132a7.609,7.609,0,0,1,7.577.033,7.156,7.156,0,0,1,3.931,5.666s.651,3.705-1.327,5.908c0,0-1.915,2.544-1.971,4.276a.661.661,0,0,1-.515.578h-.943a28.475,28.475,0,0,1,2.7-6.231,6.22,6.22,0,0,0,.058-6.026s-2.27-5.808-8.879-2.9c0,0-3.7,1.971-3.02,7.194a11.229,11.229,0,0,0,2.018,3.822A8.919,8.919,0,0,1,184.471,170.5Z" transform="translate(-40.078 -41.928)" fill="#0055bf"/>
    </g>
  </g>
</svg>
