<svg xmlns="http://www.w3.org/2000/svg" width="129.44" height="78.656" viewBox="0 0 129.44 78.656">
  <g id="Group_135414" data-name="Group 135414" transform="translate(-237.668 -192)">
    <path id="Path_2" data-name="Path 2" d="M1987.368,862.881h1.38v1.38h-1.38Zm-.54,1.921v1.381h-1.38V864.8Zm-1.38-1.921h1.38v1.38h-1.38Zm27.776,10.254v2.458h-2.458v-2.458Zm-2.458-3.42h2.458v2.458h-2.458Zm-.961,3.42v2.458h-2.458v-2.458Zm-2.458-3.42h2.458v2.458h-2.458Zm-30.723,7.03v2.3h-2.3v-2.3Zm-2.3-3.2h2.3v2.3h-2.3Zm-.9,3.2v2.3h-2.3v-2.3Zm-2.3-3.2h2.3v2.3h-2.3ZM1968.63,852.9l6.789-3.92v-1.8l-.674.389-6.115,3.531Zm6.115-1.735-6.115,3.531v1.8l6.789-3.92v-1.8Zm0,3.591-6.115,3.531v1.8l6.789-3.92v-1.8Zm12.751-7.242v9.235l-.4-.091-4.992,4.411V839.734l-13.476,7.78v1.8l8.344-4.817V865.6l2.5.506,7.68-6.929,6.333,5.361,8.486-4.483-12.926-2.952v-8.693l6.79-3.92v14.164l5.131,1.172V843.97l-3.668-2.118-8.253,4.765V835.541l-9.874-5.7-4.432,2.558v9.79l5.132-2.962v-7.186l7.619,4.4Zm6.79,4.37-3.68,2.125v2.9l3.68-2.125Zm-3.68.329,3.68-2.124v-2.9l-3.68,2.124Zm-14.875,14.3,11.077,2.24v6.711Zm12.475,4.669v-2.56l20.592-10.88Zm0,3.786v-3.435l19.885-12.98Zm-56.023,3.076h30.2l11.494-10,12.046,10,.888.737v-3.129l-.092.114-11.3-9.128v-8.682l-6.789,3.921V870.1l-7.053,6h-29.394Zm100.086-1.949,2.252,1.949h-5.177L2010.285,861l-21.047,17.046-1.032.836v-3.532l22.093-18.237-.065-.089,24.287,21.023h27.1V876.1Zm-43.52-11.295v1.381h-1.38V864.8Z" transform="translate(-1694.514 -637.84)" fill="#0055bf" fill-rule="evenodd"/>
    <path id="Path_3" data-name="Path 3" d="M2031.3,2607.494h30.327v1.948H2031.3Zm-99.113,0h30.327v1.948h-30.327Z" transform="translate(-1694.514 -2342.112)" fill="#0055bf" fill-rule="evenodd"/>
    <path id="Path_157159" data-name="Path 157159" d="M.84-2.21H3.811c1.861,0,2.923-.814,2.923-2.714,0-1.3-.6-2.069-1.718-2.205a1.646,1.646,0,0,0,1.42-1.843c0-2.035-1.42-2.4-3.079-2.4H.84Zm2.136-5.5v-2.307h.37c.8,0,1.217.373,1.217,1.1,0,.769-.2,1.21-1.169,1.21Zm0,4.082V-6.372h.442c.931,0,1.253.384,1.253,1.413,0,.882-.3,1.334-1.241,1.334ZM8.25-2.21h2.136v-4.1h.609l1.062,4.1h2.208L12.94-6.643c.955-.43,1.181-1.176,1.181-2.307,0-1.922-1.265-2.42-3.21-2.42H8.25ZM10.386-7.48v-2.533h.692c.811,0,1.062.464,1.062,1.244,0,.814-.263,1.289-1.157,1.289Zm8.09,5.405c2.184,0,2.923-1.131,2.923-3.019V-8.5c0-1.888-.74-3-2.923-3s-2.9,1.108-2.9,3v3.4C15.577-3.205,16.3-2.075,18.476-2.075Zm0-1.436c-.668,0-.716-.554-.716-1.074v-4.41c0-.543.084-1.074.716-1.074.668,0,.74.531.74,1.074v4.41C19.216-4.065,19.145-3.511,18.476-3.511Zm5.394,1.3h1.885l.776-5.53.823,5.53h1.861l1.157-9.159h-1.79L28-6.066l-.764-5.292h-1.42l-.728,5.326-.573-5.337H22.7Zm7.935,0h1.826V-6.96L35.611-2.21h1.444V-11.37H35.289v4.41l-1.981-4.41H31.8Zm7.35-5.948c1.1-.011,1.4-.656,1.444-1.956.012-.373.024-.8.024-1.255H38.917v1.617h.823c0,.588-.107,1.006-.728,1.018Zm5.417,6.084A2.326,2.326,0,0,0,47.1-4.381a3.41,3.41,0,0,0-1.5-2.748L44.8-7.8c-.561-.464-.931-.825-.931-1.5,0-.317.179-.712.573-.712.549,0,.609.52.632,1.334l1.838-.215c-.036-1.074-.334-2.6-2.4-2.6-1.671,0-2.709.848-2.709,2.4a2.906,2.906,0,0,0,1.3,2.386l.835.69A2.167,2.167,0,0,1,45-4.28c0,.317-.1.667-.537.667-.537,0-.823-.441-.847-1.628l-1.826.26C41.864-2.945,42.747-2.075,44.573-2.075Zm10.178,0c2.16,0,2.78-1.165,2.78-2.725v-.792H55.443v.961c0,.554-.024,1.119-.692,1.119-.632,0-.74-.5-.74-1.119V-8.938c0-.554.06-1.131.74-1.131s.692.565.692,1.1v.916h2.088v-.792c0-1.56-.644-2.646-2.78-2.646-2.208,0-2.9,1.165-2.9,3.064v3.3C51.852-3.273,52.544-2.075,54.751-2.075Zm7.112,0c2.184,0,2.923-1.131,2.923-3.019V-8.5c0-1.888-.74-3-2.923-3s-2.9,1.108-2.9,3v3.4C58.963-3.205,59.691-2.075,61.863-2.075Zm0-1.436c-.668,0-.716-.554-.716-1.074v-4.41c0-.543.084-1.074.716-1.074.668,0,.74.531.74,1.074v4.41C62.6-4.065,62.531-3.511,61.863-3.511Zm4.618,1.3h1.826V-6.96L70.287-2.21h1.444V-11.37H69.965v4.41l-1.981-4.41h-1.5Zm9.653.136a2.326,2.326,0,0,0,2.53-2.307,3.41,3.41,0,0,0-1.5-2.748l-.8-.667c-.561-.464-.931-.825-.931-1.5,0-.317.179-.712.573-.712.549,0,.609.52.632,1.334l1.838-.215c-.036-1.074-.334-2.6-2.4-2.6-1.671,0-2.709.848-2.709,2.4a2.906,2.906,0,0,0,1.3,2.386l.835.69A2.167,2.167,0,0,1,76.564-4.28c0,.317-.1.667-.537.667-.537,0-.823-.441-.847-1.628l-1.826.26C73.426-2.945,74.309-2.075,76.134-2.075Zm4.833-.136h2.148V-9.866h1.444v-1.5H79.511v1.5h1.456Zm4.833,0h2.136v-4.1h.609l1.062,4.1h2.208L90.489-6.643c.955-.43,1.181-1.176,1.181-2.307,0-1.922-1.265-2.42-3.21-2.42H85.8ZM87.936-7.48v-2.533h.692c.811,0,1.062.464,1.062,1.244,0,.814-.262,1.289-1.157,1.289Zm8.15,5.405c2.219,0,2.864-1.052,2.864-2.974V-11.37H96.825v6.626c0,.577-.06,1.21-.74,1.21s-.752-.633-.752-1.21V-11.37H93.222v6.321C93.222-3.126,93.854-2.075,96.085-2.075Zm7.386,0c2.16,0,2.78-1.165,2.78-2.725v-.792h-2.088v.961c0,.554-.024,1.119-.692,1.119-.632,0-.74-.5-.74-1.119V-8.938c0-.554.06-1.131.74-1.131s.692.565.692,1.1v.916h2.088v-.792c0-1.56-.644-2.646-2.78-2.646-2.208,0-2.9,1.165-2.9,3.064v3.3C100.572-3.273,101.264-2.075,103.472-2.075Zm5.215-.136h2.148V-9.866h1.444v-1.5H107.23v1.5h1.456Zm4.845,0h2.136V-11.37h-2.136Zm6.742.136c2.184,0,2.923-1.131,2.923-3.019V-8.5c0-1.888-.74-3-2.923-3s-2.9,1.108-2.9,3v3.4C117.373-3.205,118.1-2.075,120.273-2.075Zm0-1.436c-.668,0-.716-.554-.716-1.074v-4.41c0-.543.084-1.074.716-1.074.668,0,.74.531.74,1.074v4.41C121.013-4.065,120.941-3.511,120.273-3.511Zm4.618,1.3h1.826V-6.96L128.7-2.21h1.444V-11.37h-1.766v4.41l-1.981-4.41h-1.5Z" transform="translate(236.967 259.98)"/>
    <text id="_24_Hour_Services" data-name="24 Hour Services" transform="translate(271.179 268.656)" font-size="6" font-family="OpenSans, Open Sans" letter-spacing="0.03em"><tspan x="0" y="0">24 HOUR SERVICES</tspan></text>
  </g>
</svg>
